<svg width="125" height="60" viewBox="0 0 125 60" fill="none" xmlns="http://www.w3.org/2000/svg">
<g clip-path="url(#clip0_5943_383)">
<path d="M119 0H6C2.68629 0 0 2.68629 0 6V54.0001C0 57.3138 2.68629 60.0001 6 60.0001H119C122.314 60.0001 125 57.3138 125 54.0001V6C125 2.68629 122.314 0 119 0Z" fill="#0D0E12"/>
<g clip-path="url(#clip1_5943_383)">
<mask id="mask0_5943_383" style="mask-type:luminance" maskUnits="userSpaceOnUse" x="7" y="16" width="112" height="28">
<path d="M119 16H7V44H119V16Z" fill="white"/>
</mask>
<g mask="url(#mask0_5943_383)">
<path d="M53.2278 32.2553C53.0693 32.0971 52.792 32.0971 52.5939 32.2553C51.8808 32.8881 50.9301 33.2836 49.9397 33.2836C47.7213 33.2836 46.0179 31.5829 46.0179 29.3681C46.0179 27.1533 47.7609 25.4526 49.9397 25.4526C50.9301 25.4526 51.8808 25.8086 52.5939 26.4809C52.792 26.6391 53.0297 26.6391 53.2278 26.4809L54.0597 25.6899C54.1389 25.6108 54.2181 25.4922 54.2181 25.334C54.2181 25.2153 54.1785 25.0967 54.0597 25.0176C52.9901 24.0288 51.4451 23.4356 49.9794 23.4356C46.6121 23.4356 43.9579 26.0459 43.9579 29.3681C43.9579 32.6903 46.6121 35.3006 49.9794 35.3006C51.4451 35.3006 52.9901 34.7074 54.0597 33.7186C54.1389 33.6395 54.2181 33.5209 54.2181 33.4022C54.2181 33.2836 54.1785 33.1649 54.0597 33.0463L53.2278 32.2553Z" fill="white"/>
<path d="M59.3296 26.8755C56.913 26.8755 55.0115 28.7345 55.0115 31.0679C55.0115 33.4409 56.913 35.2602 59.3296 35.2602C61.746 35.2602 63.6476 33.4014 63.6476 31.0679C63.6476 28.7345 61.746 26.8755 59.3296 26.8755ZM61.6668 31.0679C61.6668 32.3731 60.6368 33.4409 59.2899 33.4409C57.9826 33.4409 56.9526 32.4126 56.9526 31.0679C56.9526 29.7628 57.9826 28.6949 59.2899 28.6949C60.6368 28.7345 61.6668 29.7628 61.6668 31.0679Z" fill="white"/>
<path d="M66.577 27.0342H65.5072C65.2697 27.0342 65.032 27.2319 65.032 27.5088V34.7069C65.032 34.9442 65.2301 35.1815 65.5072 35.1815H66.577C66.815 35.1815 67.0524 34.9838 67.0524 34.7069V27.4692C67.0524 27.2319 66.815 27.0342 66.577 27.0342Z" fill="white"/>
<path d="M66.0631 23.3957C65.6273 23.3957 65.271 23.5934 65.0333 23.9494C64.7956 24.3053 64.7956 24.7799 64.9937 25.215C65.0333 25.2545 65.0333 25.2941 65.0729 25.3336C65.3503 25.6105 65.7067 25.7687 66.0234 25.7687C66.1821 25.7687 66.3407 25.7291 66.4592 25.6896C66.9346 25.4918 67.2122 25.0568 67.2122 24.5822C67.2519 23.9494 66.6972 23.3957 66.0631 23.3957Z" fill="white"/>
<path d="M73.234 26.8756C72.3625 26.8756 71.6497 27.192 71.0949 27.7457V27.4689C71.0949 27.2316 70.8972 26.9943 70.6195 26.9943H69.5106C69.2726 26.9943 69.0352 27.192 69.0352 27.4689V34.667C69.0352 34.9043 69.2329 35.1416 69.5106 35.1416H70.6195C70.8575 35.1416 71.0949 34.9439 71.0949 34.667V30.5143C71.0949 29.3673 71.729 28.6554 72.7592 28.6554C73.8284 28.6554 74.3038 29.2486 74.3038 30.4747V34.667C74.3038 34.9043 74.5022 35.1416 74.7793 35.1416H75.8887C76.1262 35.1416 76.3636 34.9439 76.3636 34.667V30.2374C76.2848 28.1808 75.1357 26.8756 73.234 26.8756Z" fill="white"/>
<path d="M83.2568 23.5543H78.9384C78.701 23.5543 78.463 23.752 78.463 24.0289V34.7075C78.463 34.9448 78.6613 35.1821 78.9384 35.1821H80.1272C80.3647 35.1821 80.6027 34.9844 80.6027 34.7075V30.9106H83.2568C85.4356 30.9106 87.0199 29.3682 87.0199 27.272C87.0199 25.0967 85.4356 23.5543 83.2568 23.5543ZM84.9602 27.2325C84.9602 28.3794 84.2467 29.0122 83.0585 29.0122H80.6027V25.4131H83.0188C84.2071 25.4131 84.9602 26.1251 84.9602 27.2325Z" fill="white"/>
<path d="M91.3768 26.8755C88.9601 26.8755 87.059 28.7345 87.059 31.0679C87.059 33.4409 88.9601 35.2602 91.3768 35.2602C93.7936 35.2602 95.6947 33.4014 95.6947 31.0679C95.6947 28.7345 93.7936 26.8755 91.3768 26.8755ZM91.3768 28.7345C92.6841 28.7345 93.7539 29.7628 93.7539 31.1075C93.7539 32.4126 92.7237 33.4805 91.3768 33.4805C90.0696 33.4805 89.0394 32.4522 89.0394 31.1075C88.9998 29.7628 90.0299 28.7345 91.3768 28.7345Z" fill="white"/>
<path d="M100.886 30.7917L103.738 27.8255C103.857 27.7068 103.896 27.5091 103.817 27.3509C103.738 27.1927 103.579 27.074 103.381 27.074H102.074C101.955 27.074 101.836 27.1136 101.757 27.2322L99.1031 30.1194V23.989C99.1031 23.7517 98.9048 23.5144 98.6277 23.5144H97.5182C97.2807 23.5144 97.0427 23.7122 97.0427 23.989V34.6677C97.0427 34.905 97.2411 35.1423 97.5182 35.1423H98.6277C98.8651 35.1423 99.1031 34.9445 99.1031 34.6677V31.5827L102.193 34.9841C102.272 35.0632 102.391 35.1423 102.549 35.1423H103.936C104.134 35.1423 104.292 35.0236 104.372 34.8654C104.45 34.7072 104.411 34.5095 104.292 34.3908L100.886 30.7917Z" fill="white"/>
<path d="M108.887 26.8755C106.51 26.8755 104.648 28.7345 104.648 31.0679C104.648 33.4805 106.51 35.2602 108.926 35.2602C110.392 35.2602 111.66 34.5879 112.412 33.4805C112.492 33.3618 112.492 33.2036 112.452 33.085C112.412 32.9663 112.333 32.8477 112.214 32.8081L111.382 32.4522C111.184 32.3731 110.946 32.4522 110.827 32.6104C110.392 33.2036 109.679 33.5596 108.926 33.5596C107.738 33.5596 106.748 32.6895 106.629 31.503H112.61C112.848 31.503 113.046 31.3052 113.086 31.0679C113.086 30.9097 113.086 30.7911 113.086 30.712C112.888 28.4971 111.105 26.8755 108.887 26.8755ZM106.748 30.0001C107.104 29.0904 107.896 28.5366 108.887 28.5366C109.877 28.5366 110.669 29.0904 110.946 30.0001H106.748Z" fill="white"/>
<path d="M118.87 27.113C118.791 27.0339 118.633 26.9943 118.514 26.9943C117.642 27.0734 116.89 27.469 116.335 28.0227V27.5085C116.335 27.2712 116.137 27.0339 115.859 27.0339H114.79C114.552 27.0339 114.315 27.2317 114.315 27.5085V34.7067C114.315 34.944 114.512 35.1813 114.79 35.1813H115.899C116.137 35.1813 116.374 34.9835 116.374 34.7067V31.0285C116.374 29.6838 117.087 29.0114 118.553 28.9323C118.791 28.9323 118.989 28.7346 118.989 28.4973V27.469C119.029 27.3108 118.989 27.1921 118.87 27.113Z" fill="white"/>
<path d="M21 44C28.732 44 35 37.732 35 30C35 22.268 28.732 16 21 16C13.268 16 7 22.268 7 30C7 37.732 13.268 44 21 44Z" fill="#C0180C"/>
<path d="M19.6429 24.7296C19.6429 25.4775 20.251 26.0845 21 26.0845C21.749 26.0845 22.3571 25.4775 22.3571 24.7296C22.3571 23.9817 21.749 23.3747 21 23.3747C20.251 23.3747 19.6429 23.9817 19.6429 24.7296Z" fill="white"/>
<path d="M30.358 26.9051C29.5733 26.1203 28.5783 25.6228 27.4995 25.4663C27.4291 25.4562 27.3598 25.4473 27.2882 25.4406C27.2626 25.4384 27.2357 25.4361 27.21 25.4339C27.1574 25.4294 27.106 25.425 27.0535 25.4227C27.0289 25.4216 27.0054 25.4194 26.9808 25.4183C26.9059 25.4149 26.8299 25.4127 26.7539 25.4127C26.6779 25.4127 26.6085 25.4149 26.5359 25.4183C26.5068 25.4194 26.4777 25.4216 26.4487 25.4227C26.4084 25.425 26.3693 25.4283 26.329 25.4317C26.2352 25.4395 26.1413 25.4495 26.0485 25.4618C24.9563 25.6128 23.9479 26.1102 23.1542 26.9017C23.1542 26.9017 23.1509 26.904 23.1498 26.9062L21 29.0559L19.5456 30.5103L17.3959 32.6601C16.8023 33.2537 16.0242 33.551 15.2461 33.551C14.4681 33.551 13.69 33.2537 13.0964 32.6601C11.9092 31.4729 11.9092 29.5478 13.0964 28.3606C13.69 27.767 14.4681 27.4696 15.2461 27.4696C16.0242 27.4696 16.7989 27.7647 17.3914 28.3561C17.3925 28.3572 17.3936 28.3595 17.3959 28.3606L18.5965 29.5612L20.0509 28.1069L18.8502 26.9051C18.8491 26.904 18.8469 26.9029 18.8458 26.9006C17.663 25.7134 17.6642 23.7906 18.8502 22.6045C19.4438 22.0108 20.222 21.7135 21 21.7135C21.7781 21.7135 22.5561 22.0108 23.1498 22.6045C23.721 23.1757 24.0172 23.9192 24.0385 24.6682C24.6712 24.373 25.3509 24.1841 26.0552 24.108C25.9144 22.9912 25.4124 21.9583 24.6041 21.1501C23.6416 20.1876 22.3616 19.6577 21 19.6577C19.6384 19.6577 18.3584 20.1876 17.3959 21.1512C16.4333 22.1137 15.9023 23.3937 15.9023 24.7553C15.9023 24.9934 15.9191 25.2293 15.9515 25.4607C15.719 25.4283 15.4842 25.4116 15.2461 25.4116C13.8845 25.4116 12.6045 25.9415 11.642 26.9051C9.65434 28.8927 9.65434 32.1268 11.642 34.1145C12.6045 35.077 13.8845 35.608 15.2461 35.608C16.6077 35.608 17.8877 35.0781 18.8502 34.1145L21 31.9647L23.1498 34.1145C24.1123 35.077 25.3923 35.608 26.7539 35.608C28.1155 35.608 29.3955 35.0781 30.358 34.1145C32.3457 32.1268 32.3457 28.8927 30.358 26.9051ZM28.9036 32.659C28.31 33.2526 27.5319 33.5499 26.7539 33.5499C25.9758 33.5499 25.1977 33.2526 24.6041 32.659L22.4544 30.5092L24.6041 28.3595C24.6041 28.3595 24.6063 28.3561 24.6086 28.355C25.2022 27.7636 25.9781 27.4685 26.7539 27.4685C27.5297 27.4685 28.31 27.7658 28.9036 28.3595C30.0908 29.5467 30.0908 31.4718 28.9036 32.659Z" fill="white"/>
<path d="M23.1498 37.3944C22.5561 37.988 21.778 38.2854 21 38.2854C20.2219 38.2854 19.4438 37.988 18.8502 37.3944C18.5205 37.0646 18.2835 36.6767 18.1371 36.2642C17.5222 36.5739 16.8615 36.7829 16.1717 36.8813C16.4188 37.6135 16.8324 38.2854 17.3959 38.8488C18.3584 39.8113 19.6384 40.3423 21 40.3423C22.3616 40.3423 23.6416 39.8124 24.6041 38.8488C25.1665 38.2865 25.5812 37.6147 25.8282 36.8813C25.1396 36.7829 24.4789 36.5739 23.864 36.2642C23.7176 36.6767 23.4795 37.0635 23.1498 37.3944Z" fill="white"/>
</g>
</g>
</g>
<defs>
<clipPath id="clip0_5943_383">
<rect width="125" height="60" fill="white"/>
</clipPath>
<clipPath id="clip1_5943_383">
<rect width="112" height="28" fill="white" transform="translate(7 16)"/>
</clipPath>
</defs>
</svg>
